<?xml version="1.0" encoding="UTF-8"?>
<svg id="_レイヤー_2" data-name="レイヤー 2" xmlns="http://www.w3.org/2000/svg" viewBox="0 0 106.45 106.45">
  <defs>
    <style>
      .cls-1, .cls-2, .cls-3, .cls-4, .cls-5, .cls-6 {
        stroke-linecap: round;
        stroke-linejoin: round;
      }

      .cls-1, .cls-3 {
        stroke-width: .25px;
      }

      .cls-1, .cls-4 {
        fill: #eeaf00;
        stroke: #eeaf00;
      }

      .cls-2 {
        stroke-width: 3px;
      }

      .cls-2, .cls-3, .cls-5, .cls-6 {
        stroke: #f47216;
      }

      .cls-2, .cls-6 {
        fill: none;
      }

      .cls-3, .cls-5 {
        fill: #f47216;
      }

      .cls-4 {
        stroke-width: .5px;
      }

      .cls-5 {
        stroke-width: 2px;
      }
    </style>
  </defs>
  <g id="_レイヤー_2-2" data-name="レイヤー 2">
    <g>
      <circle cx="53.23" cy="53.23" r="51.88"/>
      <g>
        <path class="cls-2" d="M16.91,90.06C7.4,80.68,1.5,67.64,1.5,53.23,1.5,24.66,24.66,1.5,53.23,1.5s51.73,23.16,51.73,51.73-23.16,51.73-51.73,51.73c-8.45,0-16.42-2.03-23.47-5.62"/>
        <circle class="cls-5" cx="23.23" cy="94.75" r="3.59"/>
        <circle class="cls-2" cx="53.45" cy="52.56" r="18.06"/>
        <circle class="cls-6" cx="53.45" cy="52.56" r="13.57"/>
        <path class="cls-3" d="M62.14,75.8s1.48-.1,2.22-.27l1.54,1.87.24-2.32s.61-.08,1.26-.31l4.44,13.39-9.7-12.37Z"/>
        <path class="cls-3" d="M30.42,61.73s.08,1.48.23,2.23l-1.89,1.51,2.32.27s.07.62.29,1.26l-13.45,4.25,12.51-9.52Z"/>
        <path class="cls-3" d="M44.49,29.82s-1.48.12-2.22.3l-1.57-1.85-.2,2.32s-.61.09-1.25.33l-4.68-13.31,9.91,12.2Z"/>
        <path class="cls-3" d="M76.14,43.92s-.03-1.48-.16-2.23l1.94-1.45-2.31-.35s-.06-.62-.25-1.27l13.58-3.82-12.81,9.11Z"/>
      </g>
      <g>
        <path class="cls-1" d="M32.36,48.16s-4.34,22.3,19.36,28.34l-11.4,16.77.14-19.41s-13.43-6.25-8.1-25.7Z"/>
        <path class="cls-1" d="M58.35,31.75s-22.32-4.28-28.29,19.43l-16.8-11.36,19.41.09s6.22-13.44,25.68-8.16Z"/>
        <path class="cls-1" d="M74.2,57.75s4.7-22.23-18.9-28.65l11.67-16.59-.45,19.4s13.32,6.47,7.68,25.83Z"/>
        <path class="cls-1" d="M48.5,74.18s22.39,3.89,27.95-19.92l16.99,11.07-19.41.25s-5.98,13.55-25.54,8.61Z"/>
        <path class="cls-4" d="M43.95,51.42c-.04.37-.07.75-.07,1.14,0,.53.04,1.04.12,1.54l-4,1.91,4.39-.36c.14.41.31.81.5,1.2l-4.33,4.72,6.28-2.08c.58.55,1.23,1.03,1.93,1.43l.25,6.76,3.52-5.59c.3.03.6.04.91.04.69,0,1.37-.07,2.02-.21l4.88,5.55-1.75-6.84c.21-.13.4-.27.6-.42l3.07,2.14-1.71-3.38c.48-.54.91-1.13,1.26-1.76l6.11.46-5.17-2.88c.17-.71.26-1.46.26-2.22,0-.94-.14-1.85-.39-2.71l4.53-4.56-5.7,2.03c-.16-.24-.33-.47-.5-.7l.76-1.89-1.66.9c-.64-.61-1.36-1.13-2.15-1.55l.45-5.44-2.45,4.66c-.56-.15-1.14-.25-1.73-.29l-.77-3.08-.54,3.07c-.53.03-1.04.11-1.54.22l-1.77-3.91.33,4.36c-.22.09-.43.18-.64.28l-6.62-5.03,4.08,6.84c-.19.19-.38.39-.55.6l-2.43-.47,1.38,1.98c-.13.24-.26.48-.37.73h-6.28s5.5,2.81,5.5,2.81Z"/>
      </g>
    </g>
  </g>
</svg>